{
  "accessors": [
    {
      "bufferView": 2,
      "componentType": 5126,
      "count": 2091,
      "max": [
        2.6216399669647217,
        1.2173600196838379,
        17.890430450439453
      ],
      "min": [
        -1,
        -1.2173700332641602,
        -1
      ],
      "type": "VEC3"
    },
    {
      "bufferView": 2,
      "byteOffset": 25092,
      "componentType": 5126,
      "count": 2091,
      "max": [
        1,
        1,
        1
      ],
      "min": [
        -1,
        -1,
        -1
      ],
      "type": "VEC3"
    },
    {
      "bufferView": 3,
      "componentType": 5126,
      "count": 2091,
      "max": [
        0.99994868040084839,
        0.9999992847442627,
        0.99144583940505981,
        1
      ],
      "min": [
        -1,
        -0.99999958276748657,
        -0.99168825149536133,
        1
      ],
      "type": "VEC4"
    },
    {
      "bufferView": 1,
      "componentType": 5126,
      "count": 2091,
      "max": [
        0.9773399829864502,
        0.88394999504089355
      ],
      "min": [
        0,
        0
      ],
      "type": "VEC2"
    },
    {
      "bufferView": 0,
      "componentType": 5125,
      "count": 8916,
      "max": [
        2090
      ],
      "min": [
        0
      ],
      "type": "SCALAR"
    }
  ],
  "asset": {
    "extras": {
      "author": "imperishability (https://sketchfab.com/imperishability)",
      "license": "CC-BY-4.0 (http://creativecommons.org/licenses/by/4.0/)",
      "source": "https://sketchfab.com/models/28880191b79f4b0c8e03182e4df38d89",
      "title": "Lamp"
    },
    "generator": "Sketchfab-3.53.2",
    "version": "2.0"
  },
  "bufferViews": [
    {
      "buffer": 0,
      "byteLength": 35664,
      "byteOffset": 0,
      "name": "floatBufferViews",
      "target": 34963
    },
    {
      "buffer": 0,
      "byteLength": 16728,
      "byteOffset": 35664,
      "byteStride": 8,
      "name": "floatBufferViews",
      "target": 34962
    },
    {
      "buffer": 0,
      "byteLength": 50184,
      "byteOffset": 52392,
      "byteStride": 12,
      "name": "floatBufferViews",
      "target": 34962
    },
    {
      "buffer": 0,
      "byteLength": 33456,
      "byteOffset": 102576,
      "byteStride": 16,
      "name": "floatBufferViews",
      "target": 34962
    }
  ],
  "buffers": [
    {
      "byteLength": 136032,
      "uri": "scene.bin"
    }
  ],
  "extensionsRequired": [
    "KHR_materials_pbrSpecularGlossiness"
  ],
  "extensionsUsed": [
    "KHR_materials_pbrSpecularGlossiness"
  ],
  "images": [
    {
      "uri": "textures/Material_diffuse.png"
    },
    {
      "uri": "textures/Material_occlusion.png"
    },
    {
      "uri": "textures/Material_specularGlossiness.png"
    },
    {
      "uri": "textures/Material_emissive.png"
    }
  ],
  "materials": [
    {
      "doubleSided": true,
      "emissiveFactor": [
        1,
        1,
        1
      ],
      "emissiveTexture": {
        "index": 3,
        "texCoord": 0
      },
      "extensions": {
        "KHR_materials_pbrSpecularGlossiness": {
          "diffuseFactor": [
            1,
            1,
            1,
            1
          ],
          "diffuseTexture": {
            "index": 0,
            "texCoord": 0
          },
          "glossinessFactor": 1,
          "specularFactor": [
            0.5322027439,
            0.5322027439,
            0.5322027439
          ],
          "specularGlossinessTexture": {
            "index": 2,
            "texCoord": 0
          }
        }
      },
      "name": "Material",
      "occlusionTexture": {
        "index": 1,
        "strength": 0.2822027439,
        "texCoord": 0
      }
    }
  ],
  "meshes": [
    {
      "name": "lamp_0",
      "primitives": [
        {
          "attributes": {
            "NORMAL": 1,
            "POSITION": 0,
            "TANGENT": 2,
            "TEXCOORD_0": 3
          },
          "indices": 4,
          "material": 0,
          "mode": 4
        }
      ]
    }
  ],
  "nodes": [
    {
      "children": [
        1
      ],
      "name": "RootNode (gltf orientation matrix)",
      "rotation": [
        -0.70710678118654746,
        -0,
        -0,
        0.70710678118654757
      ]
    },
    {
      "children": [
        2
      ],
      "name": "RootNode (model correction matrix)"
    },
    {
      "children": [
        3
      ],
      "name": "Root"
    },
    {
      "children": [
        4
      ],
      "matrix": [
        0.69788000000000017,
        0,
        0,
        0,
        0,
        0.69788000000000017,
        0,
        0,
        0,
        0,
        0.69788000000000017,
        0,
        0,
        0,
        0.69240000000000013,
        1
      ],
      "name": "lamp"
    },
    {
      "mesh": 0,
      "name": "lamp_0"
    }
  ],
  "samplers": [
    {
      "magFilter": 9729,
      "minFilter": 9987,
      "wrapS": 10497,
      "wrapT": 10497
    }
  ],
  "scene": 0,
  "scenes": [
    {
      "name": "OSG_Scene",
      "nodes": [
        0
      ]
    }
  ],
  "textures": [
    {
      "sampler": 0,
      "source": 0
    },
    {
      "sampler": 0,
      "source": 1
    },
    {
      "sampler": 0,
      "source": 2
    },
    {
      "sampler": 0,
      "source": 3
    }
  ]
}

